<svg width="48" height="48" viewBox="0 0 48 48" fill="none" xmlns="http://www.w3.org/2000/svg">
<g clip-path="url(#clip0_86_28)">
<rect x="0.128906" width="48" height="48" rx="19" fill="#08CF25"/>
<g filter="url(#filter0_i_86_28)">
<path d="M23.3216 37.5457C23.8681 38.0922 24.7542 38.0922 25.3007 37.5457L34.2063 28.6397C34.7528 28.0931 34.7528 27.2071 34.2063 26.6606C33.6598 26.1141 32.7737 26.1141 32.2272 26.6606L24.3111 34.5771L16.3946 26.6609C15.8481 26.1145 14.962 26.1145 14.4155 26.661C13.869 27.2075 13.8691 28.0936 14.4156 28.6401L23.3216 37.5457ZM24.3111 35.3975L22.9117 35.3975L22.9117 36.5562L24.3111 36.5562L25.7105 36.5561L25.7105 35.3974L24.3111 35.3975Z" fill="url(#paint0_linear_86_28)"/>
<path d="M26.0423 10.2235C26.043 9.25737 25.2604 8.47361 24.2943 8.47289C23.3282 8.47218 22.5445 9.25477 22.5437 10.2209L26.0423 10.2235ZM24.2734 36.5557L26.0227 36.557L26.0423 10.2235L24.293 10.2222L22.5437 10.2209L22.5242 36.5544L24.2734 36.5557Z" fill="url(#paint1_linear_86_28)"/>
</g>
</g>
<defs>
<filter id="filter0_i_86_28" x="14.0059" y="7.91289" width="20.6094" height="30.0432" filterUnits="userSpaceOnUse" color-interpolation-filters="sRGB">
<feFlood flood-opacity="0" result="BackgroundImageFix"/>
<feBlend mode="normal" in="SourceGraphic" in2="BackgroundImageFix" result="shape"/>
<feColorMatrix in="SourceAlpha" type="matrix" values="0 0 0 0 0 0 0 0 0 0 0 0 0 0 0 0 0 0 127 0" result="hardAlpha"/>
<feOffset dy="-0.559767"/>
<feGaussianBlur stdDeviation="1.84723"/>
<feComposite in2="hardAlpha" operator="arithmetic" k2="-1" k3="1"/>
<feColorMatrix type="matrix" values="0 0 0 0 0.254808 0 0 0 0 1 0 0 0 0 0.363404 0 0 0 1 0"/>
<feBlend mode="normal" in2="shape" result="effect1_innerShadow_86_28"/>
</filter>
<linearGradient id="paint0_linear_86_28" x1="24.4749" y1="36.0276" x2="24.1473" y2="35.9261" gradientUnits="userSpaceOnUse">
<stop stop-color="white"/>
<stop offset="1" stop-color="white"/>
</linearGradient>
<linearGradient id="paint1_linear_86_28" x1="24.2832" y1="23.3889" x2="25.2832" y2="23.3897" gradientUnits="userSpaceOnUse">
<stop stop-color="white"/>
<stop offset="1" stop-color="white"/>
</linearGradient>
<clipPath id="clip0_86_28">
<rect width="48" height="48" fill="white"/>
</clipPath>
</defs>
</svg>
